<svg xmlns="http://www.w3.org/2000/svg" xmlns:xlink="http://www.w3.org/1999/xlink" preserveAspectRatio="xMidYMid" width="24" height="26" viewBox="0 0 24 26">
  <defs>
    <style>
      .cls-1 {
        fill: #fff;
        fill-rule: evenodd;
      }
    </style>
  </defs>
  <path d="M21.400,-0.000 L2.414,-0.000 C1.114,-0.000 0.000,1.088 0.000,2.356 L0.000,23.644 C0.000,24.912 1.114,26.000 2.414,26.000 L21.586,26.000 C22.886,26.000 24.000,24.912 24.000,23.644 L24.000,2.356 C23.814,0.906 22.700,-0.000 21.400,-0.000 L21.400,-0.000 ZM7.986,2.175 L12.071,2.175 L12.071,8.881 L11.700,8.519 L10.586,7.431 C10.214,7.069 9.657,7.069 9.471,7.431 L7.986,8.881 L7.986,2.175 ZM21.400,23.644 L2.229,23.644 L2.229,21.831 L21.400,21.831 L21.400,23.644 ZM21.400,19.475 L2.229,19.475 L2.229,2.356 L5.386,2.356 L5.386,11.238 C5.386,11.963 5.943,12.325 6.686,12.325 C7.429,12.325 8.171,11.963 8.729,11.419 L10.029,10.331 L11.143,11.419 C11.700,11.963 12.443,12.144 13.186,12.325 C13.929,12.325 14.486,11.781 14.486,11.238 L14.486,2.356 L21.400,2.356 L21.400,19.475 Z" class="cls-1"/>
</svg>
