<svg width="460" height="101" viewBox="0 0 460 101" xmlns="http://www.w3.org/2000/svg"><title>logo</title><g fill="none" fill-rule="evenodd"><g fill="#C30E18"><path d="M198.007 40.005l13.605-.49c-.418 1.264-.365 2.23.16 2.888.852 1.076 2.615 1.616 5.302 1.616 2.005 0 3.688-.28 5.071-.823 1.388-.552 2.281-1.184 2.672-1.908.384-.689.203-1.294-.521-1.838-.732-.548-2.84-1.053-6.329-1.54-5.696-.808-9.487-1.876-11.37-3.209-1.897-1.336-2.28-3.048-1.138-5.116.751-1.36 2.139-2.65 4.16-3.857 2.016-1.21 4.572-2.164 7.666-2.853 3.09-.693 7.003-1.042 11.718-1.042 5.8 0 9.867.636 12.221 1.888 2.335 1.26 3.036 3.263 2.097 6.002l-13.444.46c.3-1.196.046-2.065-.782-2.601-.82-.544-2.22-.816-4.201-.816-1.63 0-2.967.2-4.017.601-1.047.402-1.725.893-2.047 1.475-.242.417-.096.796.39 1.133.465.349 1.86.674 4.164.973 5.7.774 9.656 1.555 11.872 2.34 2.2.793 3.591 1.766 4.159 2.934.555 1.164.437 2.481-.353 3.917-.94 1.697-2.614 3.263-5.014 4.696-2.404 1.436-5.244 2.52-8.54 3.255-3.297.747-7.135 1.11-11.528 1.11-7.712 0-12.573-.869-14.578-2.6-2.02-1.72-2.484-3.921-1.395-6.595zM443.601 18.42c-8.61.277-17.196.545-25.768.786l-13.512 31.81c4.646.119 9.288.253 13.907.387l4.834-11.394h7.667c5.65 0 10.258-.972 13.861-2.933 3.569-1.961 6.107-4.676 7.586-8.154 1.418-3.385 1.28-5.99-.471-7.824-1.491-1.559-4.205-2.447-8.104-2.677zm-5.19 10.809c-.464 1.114-1.407 2.025-2.81 2.738-1.392.708-3.442 1.076-6.137 1.076h-3.431l3.181-7.434 4.068-.252c2.614 0 4.247.379 4.868 1.126.633.754.713 1.67.26 2.746zM403.224 19.608c-11.722.303-23.352.575-34.925.816l-12.527 29.508c4.657.088 9.3.176 13.922.272l10.427-24.572 6.333-.321c2.556 0 4.178.298 4.853.892.663.59.766 1.451.303 2.558-.33.759-.905 1.421-1.737 1.996a6.256 6.256 0 0 1-2.737 1.087c-1.959.31-3.262.471-3.902.471h-.974l-3.205 7.464c.499.456.913 1.272 1.246 2.494l2.354 8.218c5.359.123 10.683.25 16 .383l-2.058-8.061c-.123-.498-.464-1.21-1.062-2.137-.568-.923-1.066-1.525-1.453-1.804-.594-.43-1.63-.847-3.124-1.272 2.242-.36 4.078-.815 5.504-1.367 2.247-.858 4.198-1.984 5.846-3.37 1.672-1.39 2.91-3.037 3.711-4.944.94-2.195 1.031-4.056.272-5.584-.598-1.23-1.64-2.126-3.067-2.727zM329.705 21.094l-25.821 28.08c4.619.053 9.226.1 13.823.157l18.189-22.056-.514 19.83-.05 2.479c4.796.076 9.599.153 14.368.237l-2.028-29.014c-5.957.103-11.956.199-17.967.287zM186.74 21.684l-6.677 15.725L172.6 21.58c-5.313-.05-10.615-.095-15.901-.153l-11.837 27.88c4.404-.053 8.809-.102 13.236-.152l6.482-15.27 7.165 15.143c5.528-.046 11.074-.084 16.648-.115l11.52-27.156c-4.398-.02-8.787-.054-13.172-.073zM118.784 20.91L91.889 50.173c4.746-.095 9.51-.187 14.29-.271l18.642-22.623-.498 19.83-.07 2.486c4.765-.069 9.546-.142 14.349-.21l-1.97-28.195c-5.984-.084-11.918-.176-17.849-.28zM95.17 20.489c-12.167-.241-24.227-.52-36.152-.823L45.59 51.292c4.707-.134 9.445-.257 14.202-.38l10.906-25.605h6.149c2.557 0 4.17.299 4.849.892.678.59.782 1.452.307 2.558-.319.759-.897 1.421-1.733 1.996a6.245 6.245 0 0 1-2.73 1.087c-1.97.31-3.273.471-3.906.471h-.977l-3.193 7.465c.494.455.904 1.271 1.242 2.493l2.384 8.318c5.244-.126 10.511-.241 15.805-.348l-1.897-7.43c-.112-.498-.464-1.21-1.055-2.137-.578-.923-1.077-1.524-1.475-1.804-.576-.429-1.614-.846-3.102-1.271 2.231-.36 4.071-.816 5.505-1.368 2.235-.858 4.194-1.984 5.846-3.37 1.66-1.39 2.902-3.037 3.718-4.944.924-2.195 1.02-4.056.269-5.584a5.464 5.464 0 0 0-1.534-1.842zM14.467 18.348h-3.998L6.858 26.85h14.29L10.304 52.38c4.707-.158 9.445-.31 14.202-.46l10.65-25.07h14.286l3.124-7.36c-12.857-.341-25.56-.717-38.099-1.142zM310.818 24.422l2.224-3.106c-4.393.05-8.798.104-13.222.146l-1.981 2.96-8.89 13.19.94-16.058L291.102.42l-29.466 37.214.962-5.427 1.844-10.478c-4.37.027-8.756.042-13.141.053l-1.71 13.282-4.945 38.47 33.411-42.43-1.03 17.835c5.404.03 10.794.08 16.172.127l15.495-21.67 2.123-2.975z"/><path d="M230 56.91c85.387 0 164.592 3.952 229.847 10.696C397.766 58.082 317.573 52.341 230 52.341c-87.572 0-167.766 5.74-229.85 15.265C65.403 60.862 144.608 56.91 230 56.91z"/></g><g fill="#717071"><path d="M98.777 100.424h-6.773v-20.67h6.486c7.46.062 11.255 3.443 11.381 10.145.253 7.27-3.442 10.774-11.094 10.525zm-.375-16.817h-1.599v13.155h1.599c4.327 0 6.49-2.255 6.49-6.767-.127-4.197-2.289-6.327-6.49-6.388zM141.42 100.424h-5.172l-1.506-4.512h-7.897l-1.506 4.512h-5.08l7.713-20.67h5.643l7.804 20.67zm-7.522-8.081l-2.637-7.139a24.365 24.365 0 0 1-.468-1.784h-.096a5.917 5.917 0 0 1-.467 1.88l-2.35 7.047h6.018v-.004zM170.23 83.607h-6.677v16.817h-4.796V83.607h-6.773v-3.853h18.247zM201.771 100.424h-5.17l-1.507-4.512h-7.9l-1.507 4.512h-5.08l7.713-20.67h5.647l7.804 20.67zm-7.52-8.081l-2.638-7.139a24.365 24.365 0 0 1-.468-1.784h-.096a5.917 5.917 0 0 1-.467 1.88l-2.35 7.047h6.018v-.004zM247.46 85.767l-4.515 1.034c-.629-2.13-2.07-3.255-4.328-3.381-3.197.187-4.887 2.412-5.075 6.671.123 4.324 1.817 6.61 5.075 6.859 2.573-.061 4.075-1.597 4.516-4.603l4.516 1.409c-1.066 4.7-4.075 7.047-9.028 7.047-6.394-.314-9.748-3.884-10.062-10.712.314-6.702 3.668-10.24 10.062-10.616 4.512.122 7.456 2.221 8.84 6.292zM274.861 100.424h-15.329v-20.67h4.703V96.76h10.626v3.665zM306.877 90.183c-.379 6.702-3.794 10.24-10.25 10.616-6.52-.375-9.97-3.914-10.346-10.616.314-6.89 3.76-10.46 10.346-10.712 6.394.375 9.81 3.949 10.25 10.712zm-5.175 0c-.126-4.324-1.847-6.576-5.17-6.767-3.39.187-5.176 2.443-5.36 6.767.123 4.259 1.879 6.48 5.263 6.671 3.447-.061 5.202-2.286 5.268-6.671zM318.949 91.592V79.754h4.703v11.838c.065 3.447 1.63 5.201 4.704 5.262 2.947 0 4.42-1.754 4.42-5.262V79.754h4.795v11.65c0 6.266-3.166 9.395-9.499 9.395-6.018 0-9.058-3.068-9.123-9.207zM356.883 100.424h-6.773v-20.67h6.486c7.46.062 11.255 3.443 11.381 10.145.253 7.27-3.442 10.774-11.094 10.525zm-.375-16.817h-1.599v13.155h1.599c4.328 0 6.49-2.255 6.49-6.767-.127-4.197-2.289-6.327-6.49-6.388z"/></g></g></svg>