<svg id="图层_1" data-name="图层 1" xmlns="http://www.w3.org/2000/svg" viewBox="0 0 232 73"><defs><style>.cls-1{fill:#033679;}.cls-2{fill:#231815;}.cls-3{fill:#9fb3cd;}</style></defs><title>LOGO</title><path d="M83.85,60Q82.39,60,81.15,60H70.72a62.69,62.69,0,0,1,0,6.71A12.17,12.17,0,0,1,70,69.87,13.75,13.75,0,0,1,68.6,72.5a6.49,6.49,0,0,0-1.6-1,8.89,8.89,0,0,0,1.53-2.41,11.54,11.54,0,0,0,.73-4.27q.07-2.81-.15-6.16H81q1.38,0,2.84-.07Zm-9.12-4.16a7.07,7.07,0,0,0,1.39-.66q.66,1.09,1.39,2.63a7,7,0,0,0-1.6.73A9.26,9.26,0,0,0,74.73,55.87Z"/><path d="M86.88,63.46a17.67,17.67,0,0,0,.33-2.63q.95.07,1.46.07-.07.58-.29,1.93t-.58,3.32a4.6,4.6,0,0,0-1.46-.22Q86.62,64.7,86.88,63.46ZM91,58.93v5.25a14.25,14.25,0,0,1-.62,4.16,12.62,12.62,0,0,1-2.22,4.09,3.87,3.87,0,0,0-1.46-.66A10.35,10.35,0,0,0,88.63,69a10.6,10.6,0,0,0,1.06-4.7V58.86q0-1.24-.07-2.77h1.53Q91,57.77,91,58.93Zm3.14,6.13a5.26,5.26,0,0,0-1.31.44,36.06,36.06,0,0,0-1.31-4.16,6.86,6.86,0,0,1,1.24-.51Q93.55,63.46,94.13,65.06Zm1.75-5.83v9.7q0,1,.07,2.63H94.5q.07-1.68.07-2.63V59.3q0-.95-.07-2.33H96Q95.88,58.35,95.88,59.23ZM99.46,65a5.75,5.75,0,0,1-1.24.58,30,30,0,0,0-1.75-4.08c.34-.19.73-.39,1.17-.58Zm1.75,4.89c0,.39,0,1.14.07,2.26H99.75q.07-1.31.07-2.26V58.57q0-.95-.07-2.55h1.53q-.07,1.9-.07,2.55Z"/><path d="M106.9,72.35Q107,71,107,69.8V62.07q-.51.95-1.31,2.19a6.59,6.59,0,0,0-1.31-.95,14.44,14.44,0,0,0,2-2.92,17.91,17.91,0,0,0,1.82-5,11.49,11.49,0,0,0,1.82.8,11.52,11.52,0,0,0-1.6,3.43v10q0,1.46.07,2.7Zm5.47-2q-.88,1.06-1.9,2.15a4.44,4.44,0,0,0-1.46-1,15.51,15.51,0,0,0,3.65-4l1.39.95Q113.24,69.29,112.37,70.35Zm8.32-9a15.25,15.25,0,0,0-1.82-.07h-.95v4.16h1.6q.73,0,1.68-.07v1.53q-1-.07-2-.07h-7.44q-1.39,0-2.26.07V65.35q.88.07,2.19.07h.73V61.27h-.51q-1.17,0-1.9.07V60q.8.07,1.9.07h.51v-2q0-1.38-.07-2h1.46a20,20,0,0,0-.07,2.19V60h2.7V57.91q0-.8-.07-1.82h1.68a12.35,12.35,0,0,0-.15,1.9v2H119q.88,0,1.68-.07Zm-4.23,4.08V61.27h-2.7v4.16Zm3,3.72q.95,1.09,1.68,2.12a9.15,9.15,0,0,0-1.39,1,24.42,24.42,0,0,0-3.14-3.87l1.24-.95A18.93,18.93,0,0,1,119.44,69.14Z"/><path d="M139.36,71.88a1.91,1.91,0,0,1-1.46.47h-5.69a1.77,1.77,0,0,1-2-2V67.83h-4.23v1.39h-1.68q.07-.73.07-5t-.07-5.62h5.91q0-2-.07-3.06h1.6q-.07.95-.07,3.06h5.91q-.07,1.09-.07,4.52t.07,4.74h-5.91v2q0,1.31,1.39,1.31h3.87q1.17,0,1.39-.51a6.63,6.63,0,0,0,.36-1.6,4.74,4.74,0,0,0,1.68.73A6.3,6.3,0,0,1,139.36,71.88Zm-9.19-9.37v-2.7h-4.23v2.7Zm0,4.08V63.67h-4.23v2.92ZM136,62.51v-2.7h-4.38v2.7Zm0,4.08V63.67h-4.38v2.92Z"/><path d="M157.19,72a7.07,7.07,0,0,1-2.15.4,4.56,4.56,0,0,0-.66-1.82,4.45,4.45,0,0,0,2-.07,1.57,1.57,0,0,0,.44-.95l.15-5.69H145.85a20.63,20.63,0,0,1-1,5.32,12.24,12.24,0,0,1-1.57,3,3.25,3.25,0,0,0-1.53-.88,8.9,8.9,0,0,0,1.68-2.81,14.9,14.9,0,0,0,.8-3.14,21.91,21.91,0,0,0,.22-3V60q0-.73-.07-4.08h12.84q-.07,1.17-.07,2.33t.07,2.33H145.92v2h12.62L158.25,70Q158,71.62,157.19,72Zm-1.35-12.58V57.18h-9.92v2.19Zm-1.71,8.31q0,1.09,0,2.41h-7.08a14.53,14.53,0,0,0,.15-2.19q0-1.31-.07-2.7h7Q154.09,66.59,154.13,67.69Zm-1.35,1.24V66.45h-4.16v2.48Z"/><path d="M163.79,63.27a18.27,18.27,0,0,0,2.92-4h-2.63q-1,0-2.55.07V57.91q1.9.07,2.84.07h2.77a13,13,0,0,0,.66-2.55q1.09.29,1.75.44a8,8,0,0,0-.73,2.12h5.91q1.24,0,2.55-.07V59.3q-1.31-.07-2.33-.07h-6.56q-.51.95-1.09,1.9h8.39q-.07,1.82-.07,3.28v5.91a1.82,1.82,0,0,1-.58,1.5,5,5,0,0,1-2.48.62,5.39,5.39,0,0,0-.51-1.75,6.57,6.57,0,0,0,1.6.07c.34,0,.51-.32.51-.8V68.49h-7.59v3.87H165q.07-1.82.07-3.14V64a23.65,23.65,0,0,1-3.21,3.06,4,4,0,0,0-1.31-1.17A17,17,0,0,0,163.79,63.27Zm10.36,1.06v-2h-7.59v2Zm0,3V65.5h-7.59v1.82Z"/><path d="M183.85,62.07a6.84,6.84,0,0,1,1.68,3.21,2.82,2.82,0,0,1-.62,2.41A4.35,4.35,0,0,1,182.83,69a3,3,0,0,0-.66-1.68q1.31,0,1.68-.51a2.59,2.59,0,0,0,.29-1.64,6,6,0,0,0-1.75-3,39.46,39.46,0,0,0,1.46-4.74h-2.19V72.14h-1.39q.07-2,.07-4V59.59q0-1.31-.07-3.36h5.4Q184.36,60.54,183.85,62.07Zm10.65-2.19q0,2.26.07,3.57h-3.43a6.78,6.78,0,0,0,.73,2.92,7.66,7.66,0,0,0,2.48-2.26,6.44,6.44,0,0,0,1.09,1.31,33.47,33.47,0,0,0-3.21,1.9,12.9,12.9,0,0,0,1.68,1.9,7.31,7.31,0,0,0,2.55,1.39A2.8,2.8,0,0,0,195.16,72a12.11,12.11,0,0,1-2.74-2.22,9.48,9.48,0,0,1-1.6-2.63,13.07,13.07,0,0,1-.84-3.68H188.3v6.64a10.57,10.57,0,0,0,2.12-1.39,11.75,11.75,0,0,0,.29,1.53l-1.71.95a12.49,12.49,0,0,0-1.79,1.17,10.63,10.63,0,0,0-.8-1.31,2.36,2.36,0,0,0,.58-1.31V59.44q0-1.46-.07-3.21h7.66Q194.5,57.55,194.5,59.88Zm-1.31-.66V57.4H188.3v1.82Zm0,3.06v-2H188.3v2Z"/><path d="M202.16,61.85a21.45,21.45,0,0,1-3,3.65,4,4,0,0,0-1.24-1.17,15.93,15.93,0,0,0,3.21-3.57,17.85,17.85,0,0,0,2.41-4.67,5.1,5.1,0,0,0,1.46.66A40.86,40.86,0,0,1,202.16,61.85Zm6.27,4.89a9.15,9.15,0,0,0,1.24-.88q1.09,1.6,2,3.17t1.46,2.52q-.8.44-1.39.8-.44-.88-1.17-2.12-4.89.66-6.89.95a13,13,0,0,0-2.88.66,6.17,6.17,0,0,0-.8-1.6,3.78,3.78,0,0,0,1.39-1,18.71,18.71,0,0,0,1.93-3.06,21.15,21.15,0,0,0,1.79-4.08,6.94,6.94,0,0,0,1.68.8q-.8,1.24-2.15,3.72a26.8,26.8,0,0,1-1.93,3.21q3.35-.29,7.29-.73A20.49,20.49,0,0,0,208.43,66.74Zm3.32-5.62a11.21,11.21,0,0,0,3.17,2.77,2.93,2.93,0,0,0-1.39,1.24,18.17,18.17,0,0,1-3.72-4.23A27.13,27.13,0,0,1,207.34,56a4.7,4.7,0,0,0,1.46-.51A19.73,19.73,0,0,0,211.75,61.12Z"/><path d="M226.52,59.88q.95,0,2.55-.07v1.46q-1.53-.07-2.48-.07h-6.78q-1.39,0-2.84.07V59.81q1.46.07,2.84.07Zm6-3.5q-.07,1.61-.07,2.84V70.6a1.38,1.38,0,0,1-1,1.28,13.13,13.13,0,0,1-2.66.55,3.52,3.52,0,0,0-.73-1.75,10.46,10.46,0,0,0,2.33-.15q.44-.15.44-1.09V57.62H220.76q-1.31,0-2.84.07V56.31q1.53.07,2.77.07Zm-4.74,9.12v1.6q0,1.17.07,2.41h-1.6v-.95h-6v2h-1.6a21.41,21.41,0,0,0,.15-2.33V65.5a19,19,0,0,0-.15-2.19h9.19Q227.76,64.33,227.76,65.5Zm-1.53,1.9V64.48h-6v2.92Z"/><path class="cls-1" d="M54.64,15.13V9.69H37.8V-.5H31.47V7.13C27,5.07,17.52,3.75,7.19,3.75H.5V9.18H7.19c10.38,0,19.88,1.34,24.28,3.41v3c-4.49-2.06-14-3.38-24.28-3.38H.5v5.44H7.19c10.38,0,19.88,1.34,24.28,3.41v3c-4.5-2.06-14-3.38-24.28-3.38H.5v5.44H7.19c10.38,0,19.88,1.34,24.28,3.41v11H54.64V35.16H37.8V32.11H54.64V26.67H37.8V23.62H54.64V18.18H37.8v-3Z"/><path class="cls-2" d="M73.53,38.66c-.16.47-.66,1.94-3.12,1.94-2,0-3.43-1.18-3.43-3.06,0-1.67,1.06-3.16,3.51-3.16a3.76,3.76,0,0,1,2.3.69,2.21,2.21,0,0,1,.71,1.08l-1.5.29a1.51,1.51,0,0,0-1.59-1,1.79,1.79,0,0,0-1.87,2,2.4,2.4,0,0,0,.4,1.51,1.85,1.85,0,0,0,1.45.59,1.61,1.61,0,0,0,1.66-1.27Z"/><path class="cls-2" d="M74.84,34.48h1.51v2.37h3V34.48h1.52v6H79.33V37.87h-3V40.5H74.84Z"/><path class="cls-2" d="M82.35,34.48h1.52v6H82.35Z"/><path class="cls-2" d="M85.39,34.48h1.47l3.06,4h0v-4h1.41v6H89.82l-3-3.92h0V40.5H85.39Z"/><path class="cls-2" d="M94.87,38.12l1-2.23,1,2.23Zm4.86,2.38-3-6H95.1l-2.93,6h1.62l.62-1.36h3l.65,1.36Z"/><path class="cls-2" d="M104.59,38.43c.08.31.28,1.15,1.64,1.15,1.06,0,1.48-.44,1.48-.83s-.53-.61-1.91-.88c-.75-.15-2.41-.48-2.41-1.81,0-.65.53-1.68,2.74-1.68,1.47,0,2.82.46,2.88,1.82l-1.52.05c-.07-.31-.18-.87-1.38-.87-.45,0-1.27.11-1.27.59s.47.56,1.68.78,2.7.51,2.7,2A1.78,1.78,0,0,1,108,40.33a5.26,5.26,0,0,1-1.78.27c-.81,0-2.81-.06-3.1-2.06Z"/><path class="cls-2" d="M111.7,37.49a2.08,2.08,0,0,1,4.15,0,1.91,1.91,0,0,1-2.07,2.08,2,2,0,0,1-1.7-.76A2.08,2.08,0,0,1,111.7,37.49Zm-1.57,0c0,1.38.83,3.07,3.66,3.07,2.64,0,3.63-1.53,3.63-3.1,0-1.75-1.19-3.12-3.65-3.12S110.14,35.6,110.14,37.53Z"/><path class="cls-2" d="M120.17,34.48v3.25c0,.71,0,1,.19,1.29a1.57,1.57,0,0,0,1.34.53c1.45,0,1.45-.73,1.45-1.75V34.48h1.52v3.16a3.23,3.23,0,0,1-.42,2.12,3.19,3.19,0,0,1-2.5.83c-3.08,0-3.08-1.52-3.08-2.9V34.48Z"/><path class="cls-2" d="M127.92,35.5h-2.23v-1h6v1h-2.23v5h-1.51Z"/><path class="cls-2" d="M132.67,34.48h1.52v2.37h3V34.48h1.51v6h-1.51V37.87h-3V40.5h-1.52Z"/><path class="cls-2" d="M140.26,34.48h5.58v1h-4.07v1.34h3.79v1h-3.79v1.63H146v1h-5.72Z"/><path class="cls-2" d="M148.79,35.5H150c1,0,1.21,0,1.49.13a.64.64,0,0,1,.39.61.7.7,0,0,1-.58.7,7.2,7.2,0,0,1-1.36.07h-1.13Zm-1.51,5h1.51V38h.3c1,0,1.12.12,2,1.2l1.09,1.31H154l-.92-1.18a3.82,3.82,0,0,0-1.68-1.47v0a3.41,3.41,0,0,0,.84-.19,1.55,1.55,0,0,0,1.14-1.48,1.61,1.61,0,0,0-1.23-1.54,6.15,6.15,0,0,0-1.72-.15h-3.19Z"/><path class="cls-2" d="M154.9,34.48h1.47l3.06,4h0v-4h1.41v6h-1.53l-3-3.92h0V40.5H154.9Z"/><path class="cls-2" d="M167.63,35.5c.91,0,1.26,0,1.6.23a.7.7,0,0,1,.35.61c0,.86-1.06.86-1.84.86h-.84V35.5Zm-2.25,5h1.51V38.23h1a6.43,6.43,0,0,0,2-.21,1.74,1.74,0,0,0,1.23-1.69A1.73,1.73,0,0,0,170,34.67a6,6,0,0,0-2.13-.19h-2.44Z"/><path class="cls-2" d="M173.62,37.49a2.08,2.08,0,0,1,4.15,0,1.91,1.91,0,0,1-2.07,2.08,2,2,0,0,1-1.7-.76A2.09,2.09,0,0,1,173.62,37.49Zm-1.57,0c0,1.38.83,3.07,3.66,3.07,2.64,0,3.63-1.53,3.63-3.1,0-1.75-1.19-3.12-3.65-3.12S172.05,35.6,172.05,37.53Z"/><path class="cls-2" d="M179.28,34.48h1.56L182,38.62h0l1.37-4.13h1.81l1.32,4.2h0l1.13-4.2h1.54l-1.83,6h-1.62L184.23,36h0l-1.48,4.49h-1.65Z"/><path class="cls-2" d="M190,34.48h5.58v1h-4.07v1.34h3.78v1h-3.78v1.63h4.2v1H190Z"/><path class="cls-2" d="M198.5,35.5h1.19c1,0,1.21,0,1.49.13a.64.64,0,0,1,.39.61.69.69,0,0,1-.58.7,7.24,7.24,0,0,1-1.37.07H198.5Zm-1.52,5h1.52V38h.31c1,0,1.11.12,2,1.2l1.09,1.31h1.82l-.92-1.18a3.81,3.81,0,0,0-1.68-1.47v0a3.41,3.41,0,0,0,.84-.19,1.55,1.55,0,0,0,1.14-1.48,1.61,1.61,0,0,0-1.23-1.54,6.18,6.18,0,0,0-1.72-.15H197Z"/><path class="cls-2" d="M210.92,37.27h3.27v2.39a5.79,5.79,0,0,1-3.22.93c-2.71,0-3.82-1.54-3.82-3.12s1-3.09,3.73-3.09c1.22,0,2.79.29,3.21,1.76l-1.52.23a1.69,1.69,0,0,0-1.68-.95,2.26,2.26,0,0,0-1.77.67,2,2,0,0,0-.41,1.32,2,2,0,0,0,2.16,2.13,3.57,3.57,0,0,0,1.78-.51v-.75h-1.74Z"/><path class="cls-2" d="M217.19,35.5h1.19c1,0,1.21,0,1.49.13a.64.64,0,0,1,.39.61.7.7,0,0,1-.58.7,7.21,7.21,0,0,1-1.37.07h-1.12Zm-1.52,5h1.52V38h.3c1,0,1.12.12,2,1.2l1.09,1.31h1.82l-.91-1.18a3.86,3.86,0,0,0-1.68-1.47v0a3.35,3.35,0,0,0,.84-.19,1.55,1.55,0,0,0,1.15-1.48,1.61,1.61,0,0,0-1.23-1.54,6.15,6.15,0,0,0-1.72-.15h-3.2Z"/><path class="cls-2" d="M223.19,34.48h1.51v6h-1.51Z"/><path class="cls-2" d="M228.39,35.5c1.47,0,2.54,0,2.54,2s-.93,2-2.09,2h-1.14v-4Zm-2.2-1v6H229a3.93,3.93,0,0,0,2.5-.67,2.88,2.88,0,0,0,1-2.27,3,3,0,0,0-.63-2,3.41,3.41,0,0,0-2.9-1Z"/><path class="cls-2" d="M70.41,16h6.08v4.27H70.41Zm.07,7.6-.07-.38h6.08V28l-.11,2.79h4L80.25,28V23.18h6.22l0,.42h3.83l-.1-2.89V15.39l.1-2.41-3,.1h-7V11.58l.11-2.94h-4l.11,2.94v1.49H69.65l-2.9-.1.08,2.41v5.32l-.08,2.85Zm9.76-3.33V16h6.22v4.27Z"/><path class="cls-2" d="M108.81,23.78V20.64h1.9a8.79,8.79,0,0,1-1.55,1.06,14.92,14.92,0,0,1,1.76,1.42l.59.66Zm-9.55,2.44,2.41-.07h10.78l2.56.07V23.73l-2.06.06q.68-.64,1.28-1.17l-.67-.57-1-.78c-.16-.13-.38-.33-.66-.61l2.07.1V18.17l-1.77,0h-3.43V15.93h3.6l2.4.11V13.43l-2.56.06H102l-2.37-.06V16l2.37-.07h3.54v2.29H102.7l-2.37,0v2.54l2.37-.07h2.83v3.14H101.7l-2.44-.06ZM95.54,12.05V27.69l-.09,2.7h3.33v-.32h16.68v.49h3.4l-.1-2.71V12.05l.1-2.52-2.73.08H98.22l-2.76-.08Zm3.25.1h16.68V27.56H98.79Z"/><path class="cls-2" d="M137.51,17.86a7.12,7.12,0,0,1-.66,1.29c-.2.29-.43.58-.67.87a3.71,3.71,0,0,1,.86.29h-3a4.85,4.85,0,0,1,1.1-.71l-.47-.49-.73-.74-.57-.52Zm-14.5-4,2.73-.08h8.1l0,1.55h-6.95l-2.56-.08.1,2.19v9.93l-.1,3h3.53l-.06-3V17.86h3.86a7.59,7.59,0,0,1-1.27.74,8.83,8.83,0,0,1,1.06,1l.61.74h-1l-2.13-.06v2.51l2.13-.05H134V24h-2.16l-2.9-.06v2.53l2.9-.07H134v1.09l-.06,2.77h3.54l-.07-2.77V26.35h1.93l2.68.07V23.9l-2.68.06h-1.93V22.71h2.47l2.1.05V20.26l-2.1.06h-.43a9.61,9.61,0,0,0,.68-.93c.25-.38.45-.72.62-1a5.06,5.06,0,0,1-1.23-.52H143v9a1.1,1.1,0,0,1-.21.78,1.53,1.53,0,0,1-1,.21,9.4,9.4,0,0,1-1.77-.15l.33.72a7.66,7.66,0,0,1,.54,1.54c.08.42.15.75.2,1q3.88-.05,4.59-.79a2.3,2.3,0,0,0,.71-1.63V17.43l.1-2.19-2.8.08h-6.26l0-1.55h7.24l3.14.08V11l-3.14.08h-7.21l.07-1.35.07-1a37.8,37.8,0,0,1-3.81-.19l.07,1.06-.07,1.48h-8.1L123,11Z"/><path class="cls-2" d="M157.76,24.71a10.69,10.69,0,0,0,2.19-4.16,24.13,24.13,0,0,0,.49-4.25l0-1.25h-5.61l-3.07.1v-3l3.14.08h8.35a9.56,9.56,0,0,0-2.15-2.62,11.53,11.53,0,0,0,3-1.49,19.19,19.19,0,0,1,1.46,1.7q.83,1.08,1.31,1.78a11.58,11.58,0,0,0-1.13.63h7.78l3.19-.08v3l-3.5-.1h-9.15c-.06.81-.1,1.3-.1,1.48l-.07,1.3h7.38l2.36-.05-.11,2.49q-.08,3.5-.14,4.92a16.42,16.42,0,0,1-.26,2.4,3.32,3.32,0,0,1-.93,1.73,5.23,5.23,0,0,1-2.28,1.2,20.88,20.88,0,0,1-4.2.65q-.08-.42-.24-1.11a3.89,3.89,0,0,0-.55-1.28l-.54-.83q1.13,0,2.47,0a3.36,3.36,0,0,0,1.93-.49,2.47,2.47,0,0,0,.8-.93,4.63,4.63,0,0,0,.25-1.57l.12-2.87v-1.6h-6.4c-.1.46-.21.92-.33,1.39a23.94,23.94,0,0,1-.93,2.52,8.87,8.87,0,0,1-3.14,3.57,26.66,26.66,0,0,1-5.3,3,20.54,20.54,0,0,0-1.67-2.09l-.79-.72Q156,27,157.76,24.71Z"/><path class="cls-2" d="M184.68,14.31h5.24V17h-5.24Zm-3.38-.65v9.12l-.09,2.44h3.46v-.36h5.24v3.43a3.56,3.56,0,0,0,.2,1.3,1.9,1.9,0,0,0,1,.89,5.54,5.54,0,0,0,2.38.4l4.13,0q2.64.07,3.91,0a7.23,7.23,0,0,0,1.91-.27,3.22,3.22,0,0,0,1.18-.73A9,9,0,0,0,206,27a17.77,17.77,0,0,1-3.32-1.37l-.17.93a1.76,1.76,0,0,1-.66,1.26,2.84,2.84,0,0,1-1.36.43,27.14,27.14,0,0,1-2.78,0l-3-.07a1.91,1.91,0,0,1-1.21-.28.82.82,0,0,1-.23-.56V24.85h6v.45h3.46L202.61,23v-9.3l.08-2.08-2.23.08h-7.21V10.32l.07-1.88h-3.47l.07,1.88v1.34h-6.11l-2.6-.08Zm3.38,5.91h5.24v2.69h-5.24Zm8.57-5.26h6V17h-6Zm0,5.26h6v2.69h-6Z"/><path class="cls-2" d="M213.43,16.46l.7.82q.29.35,1.9,2.48A9.06,9.06,0,0,1,214.91,22a15.5,15.5,0,0,1-1.48,1.69Zm.05,13.64L213.43,27V24.1a15.08,15.08,0,0,1,1.41,1.28l.68.77a27.66,27.66,0,0,0,1.86-2.33l.63-1,.36.64a8.36,8.36,0,0,1,.35,1l.64-.52a11.7,11.7,0,0,1,2.12-1.18q-1-1.71-2.06-3.24l.28-.81c.1-.29.28-.92.53-1.9q1.33,1.39,1.65,1.77A16.24,16.24,0,0,1,223,20.26l-.43,1a10.19,10.19,0,0,1-1.22,2.1,12.37,12.37,0,0,1-2.17,2.18,16.06,16.06,0,0,1,1.83,1l1,.69a12.6,12.6,0,0,0,1.24-1.3q.47-.58,1.9-2.71l.74,1.3c.06.12.24.51.53,1.19a23.1,23.1,0,0,1,2.59-2l-.48-.78q-.07-.08-2-3l.39-1.49c.14-.55.29-1.29.47-2.22l.25-1.44c0-.16.07-.39.14-.71a31,31,0,0,1-3.42-.39v.75a18.24,18.24,0,0,1-.29,2.36c-.48-.58-.92-1.09-1.31-1.54l-.6.45a7.53,7.53,0,0,1-1.8.91l.29-1.26s0-.22.11-.59.14-.7.2-1a19.37,19.37,0,0,1-3.37-.52l0,1a9.72,9.72,0,0,1-.12,1.15c-.06.36-.14.74-.23,1.15-.55-.65-1-1.25-1.45-1.81a9.75,9.75,0,0,1-1.47.93l-.79.32V12.71H229v14a1,1,0,0,1-.19.65c-.12.16-.53.23-1.22.22a17,17,0,0,1-1.84-.14l.4.75a6,6,0,0,1,.67,1.67c.05.38.09.67.12.9a18,18,0,0,0,3.83-.5q1.18-.35,1.38-1a4.5,4.5,0,0,0,.2-1.38v-15l.07-2.88-3.31.08H213.24l-3.39-.08.08,2.88V27l-.08,3.11Z"/><rect class="cls-3" x="0.5" y="48" width="232" height="1"/></svg>