<svg xmlns="http://www.w3.org/2000/svg" xmlns:xlink="http://www.w3.org/1999/xlink" preserveAspectRatio="xMidYMid" width="34.969" height="29" viewBox="0 0 34.969 29">
  <defs>
    <style>
      .cls-1 {
        fill: #fff;
        fill-rule: evenodd;
      }
    </style>
  </defs>
  <path d="M34.982,16.561 L34.982,23.292 C34.982,23.678 34.878,24.042 34.675,24.374 C34.472,24.710 34.192,24.960 33.839,25.133 L26.636,28.760 C26.370,28.910 26.063,28.987 25.719,28.987 C25.376,28.987 25.069,28.910 24.803,28.760 L17.599,25.137 C17.554,25.114 17.518,25.092 17.487,25.074 C17.464,25.096 17.428,25.114 17.374,25.137 L10.175,28.760 C9.908,28.910 9.601,28.987 9.258,28.987 C8.915,28.987 8.608,28.910 8.341,28.760 L1.142,25.133 C0.790,24.960 0.510,24.706 0.307,24.374 C0.104,24.037 -0.000,23.678 -0.000,23.292 L-0.000,16.561 C-0.000,16.152 0.113,15.775 0.348,15.429 C0.578,15.084 0.881,14.825 1.255,14.652 L8.233,11.644 L8.233,5.172 C8.233,4.763 8.346,4.386 8.581,4.040 C8.811,3.695 9.114,3.436 9.488,3.263 L16.692,0.159 C16.940,0.050 17.207,-0.005 17.496,-0.005 C17.784,-0.005 18.051,0.050 18.299,0.159 L25.498,3.263 C25.873,3.436 26.176,3.695 26.406,4.040 C26.636,4.386 26.754,4.763 26.754,5.172 L26.754,11.644 L33.731,14.652 C34.115,14.825 34.422,15.084 34.648,15.429 C34.869,15.770 34.982,16.148 34.982,16.561 L34.982,16.561 ZM9.258,19.052 L15.752,16.252 L9.258,13.452 L2.764,16.252 L9.258,19.052 ZM10.021,26.396 L16.195,23.292 L16.195,18.211 L10.021,20.865 L10.021,26.396 ZM7.849,26.396 L7.849,20.861 L1.675,18.206 L1.675,23.288 L7.849,26.396 ZM17.491,8.180 L24.581,5.122 L17.491,2.063 L10.401,5.122 L17.491,8.180 ZM18.520,14.311 L24.694,11.644 L24.694,7.340 L18.520,9.989 L18.520,14.311 ZM25.719,19.052 L32.214,16.252 L25.719,13.452 L19.225,16.252 L25.719,19.052 ZM26.749,26.396 L32.923,23.292 L32.923,18.211 L26.749,20.861 L26.749,26.396 ZM16.195,14.311 L16.195,9.994 L10.021,7.340 L10.021,11.644 L16.195,14.311 ZM24.694,26.396 L24.694,20.861 L18.520,18.206 L18.520,23.288 L24.694,26.396 Z" class="cls-1"/>
</svg>
