<svg xmlns="http://www.w3.org/2000/svg" xmlns:xlink="http://www.w3.org/1999/xlink" preserveAspectRatio="xMidYMid" width="34" height="27" viewBox="0 0 34 27">
  <defs>
    <style>
      .cls-1 {
        fill: #fff;
        fill-rule: evenodd;
      }
    </style>
  </defs>
  <path d="M33.231,16.775 C32.831,17.539 32.206,18.500 31.504,18.752 C30.915,18.962 30.309,18.863 29.879,18.482 C29.448,18.100 29.265,17.492 29.391,16.854 C29.482,16.387 29.770,16.066 30.023,15.782 C30.143,15.648 30.255,15.522 30.328,15.399 C30.884,14.467 30.977,13.388 30.591,12.362 C30.188,11.292 29.304,10.431 28.285,10.116 C28.095,10.061 27.901,10.018 27.706,9.988 C27.264,9.911 26.806,9.830 26.467,9.364 C26.254,9.070 26.164,8.738 26.086,8.445 C26.049,8.289 26.000,8.137 25.939,7.989 C25.613,7.288 24.605,5.673 22.311,5.843 C21.826,5.885 21.353,6.025 20.920,6.253 C20.814,6.313 20.711,6.381 20.612,6.454 C20.259,6.704 19.819,7.016 19.121,6.858 C18.486,6.713 18.193,6.221 17.936,5.786 C17.856,5.651 17.774,5.511 17.682,5.383 C17.118,4.591 15.482,2.804 12.485,3.323 C10.218,3.717 8.527,5.450 8.182,7.739 C8.154,7.921 8.139,8.099 8.123,8.271 C8.067,8.885 8.012,9.522 7.371,9.888 C7.108,10.038 6.832,10.083 6.588,10.122 C6.519,10.135 6.450,10.146 6.385,10.159 C4.702,10.504 3.067,11.922 3.209,14.311 C3.329,16.335 4.795,17.825 6.856,18.017 C6.935,18.025 7.022,18.025 7.114,18.025 C7.351,18.027 7.648,18.030 7.931,18.137 C8.626,18.400 8.806,19.044 8.966,19.612 C9.035,19.864 9.109,20.124 9.222,20.354 C9.478,20.874 10.493,22.570 12.773,22.574 L12.781,22.574 C13.394,22.580 14.000,22.438 14.550,22.161 C14.706,22.085 14.848,21.969 14.999,21.846 C15.244,21.648 15.522,21.423 15.892,21.354 C16.491,21.242 17.022,21.397 17.397,21.799 C17.773,22.200 17.924,22.803 17.793,23.375 C17.644,24.023 17.000,24.600 15.829,25.139 C15.031,25.505 14.088,25.731 13.026,25.810 L12.513,25.810 C9.391,25.532 7.298,24.020 6.121,21.187 C2.889,20.588 0.712,18.488 0.133,15.403 C-0.575,11.630 1.597,8.732 4.065,7.536 C4.239,7.451 4.418,7.385 4.585,7.323 C4.751,7.261 4.910,7.200 5.069,7.126 C5.746,3.691 7.855,1.285 11.019,0.339 C14.060,-0.569 16.978,0.512 18.552,1.712 C18.912,1.986 19.213,2.299 19.504,2.602 C19.682,2.788 19.853,2.966 20.032,3.131 C20.957,2.710 22.116,2.519 23.247,2.609 C25.846,2.814 27.930,4.404 28.982,6.977 C31.957,7.887 33.641,9.983 33.996,13.207 L34.000,13.237 L34.000,13.946 C33.890,15.063 33.631,16.012 33.231,16.775 ZM17.923,20.189 C18.221,19.247 19.397,18.432 20.330,17.915 C22.448,16.740 25.417,16.740 27.550,17.915 C28.528,18.453 29.856,19.318 30.100,20.633 L30.105,20.687 L30.103,20.996 C30.024,21.599 29.681,22.133 29.172,22.450 C28.889,22.626 28.564,22.719 28.233,22.719 C27.999,22.718 27.767,22.674 27.548,22.591 C27.150,22.441 26.877,22.143 26.637,21.882 C26.503,21.736 26.377,21.599 26.244,21.500 C25.722,21.115 24.731,20.693 23.661,20.772 C22.812,20.836 22.274,21.129 21.861,21.406 C21.657,21.541 21.495,21.705 21.323,21.877 C21.041,22.160 20.748,22.452 20.285,22.598 C19.578,22.820 18.830,22.640 18.333,22.128 C17.850,21.630 17.697,20.905 17.923,20.189 ZM24.164,22.506 C25.203,22.590 26.063,23.448 26.161,24.504 C26.282,25.781 25.668,26.594 24.283,26.990 L24.246,27.000 L23.661,27.000 L23.616,26.986 C23.492,26.943 23.392,26.916 23.305,26.891 C23.128,26.841 22.975,26.799 22.792,26.687 C21.949,26.175 21.576,25.041 21.905,23.989 C22.150,23.204 22.874,22.402 24.164,22.506 Z" class="cls-1"/>
</svg>
