<svg xmlns="http://www.w3.org/2000/svg" xmlns:xlink="http://www.w3.org/1999/xlink" preserveAspectRatio="xMidYMid" width="34.031" height="27" viewBox="0 0 34.031 27">
  <defs>
    <style>
      .cls-1 {
        fill: #fff;
        fill-rule: evenodd;
      }
    </style>
  </defs>
  <path d="M21.502,12.600 C23.203,11.307 24.301,9.305 24.301,7.054 C24.301,3.164 21.031,0.000 17.010,0.000 C12.990,0.000 9.720,3.164 9.720,7.054 C9.720,9.305 10.819,11.307 12.519,12.600 C8.039,14.332 4.860,18.568 4.860,23.514 L4.860,26.996 L29.161,26.996 L29.161,23.514 C29.161,18.567 25.983,14.332 21.502,12.600 M17.011,2.351 C19.691,2.351 21.871,4.461 21.871,7.054 C21.871,9.648 19.691,11.757 17.011,11.757 C14.330,11.757 12.150,9.648 12.150,7.054 C12.150,4.461 14.330,2.351 17.011,2.351 M26.731,24.690 L7.290,24.690 L7.290,23.514 C7.290,18.328 11.651,14.108 17.012,14.108 C22.371,14.108 26.731,18.328 26.731,23.514 L26.731,24.690 M8.877,13.008 C8.910,12.937 8.910,12.861 8.926,12.788 C8.938,12.743 8.951,12.701 8.957,12.654 C8.967,12.561 8.961,12.472 8.948,12.382 C8.943,12.333 8.955,12.288 8.943,12.239 C8.936,12.212 8.916,12.192 8.908,12.165 C8.889,12.112 8.863,12.065 8.836,12.015 C8.786,11.914 8.732,11.822 8.657,11.741 C8.646,11.730 8.633,11.721 8.622,11.710 C8.464,11.550 8.258,11.435 8.028,11.386 C6.925,10.886 6.075,9.623 6.075,8.231 C6.075,6.594 7.221,5.184 8.864,4.802 C9.516,4.649 9.917,4.014 9.761,3.382 C9.602,2.751 8.943,2.367 8.294,2.514 C5.557,3.153 3.645,5.504 3.645,8.231 C3.645,9.719 4.230,11.114 5.224,12.175 C2.062,13.761 0.000,16.932 0.000,20.520 L0.000,22.338 C0.000,22.988 0.543,23.514 1.215,23.514 C1.887,23.514 2.430,22.988 2.430,22.338 L2.430,20.520 C2.430,17.268 4.689,14.478 7.931,13.688 C8.334,13.633 8.701,13.395 8.877,13.008 M28.792,12.175 C29.786,11.114 30.371,9.719 30.371,8.231 C30.371,5.575 28.522,3.240 25.875,2.552 C25.229,2.385 24.562,2.755 24.386,3.382 C24.212,4.011 24.596,4.655 25.244,4.823 C26.832,5.236 27.941,6.638 27.941,8.231 C27.941,9.622 27.093,10.883 25.779,11.452 C25.632,11.514 25.503,11.600 25.391,11.712 C25.382,11.723 25.370,11.730 25.360,11.740 C25.284,11.821 25.230,11.915 25.179,12.018 C25.154,12.067 25.127,12.113 25.109,12.165 C25.101,12.191 25.080,12.212 25.073,12.239 C25.061,12.287 25.073,12.333 25.068,12.382 C25.056,12.472 25.050,12.561 25.059,12.654 C25.065,12.701 25.078,12.743 25.090,12.788 C25.107,12.861 25.107,12.937 25.140,13.009 C25.315,13.395 25.682,13.633 26.085,13.688 C29.327,14.478 31.586,17.268 31.586,20.520 L31.586,22.339 C31.586,22.988 32.130,23.514 32.801,23.514 C33.473,23.514 34.016,22.988 34.016,22.339 L34.016,20.520 C34.016,16.932 31.954,13.760 28.792,12.175 L28.792,12.175 Z" class="cls-1"/>
</svg>
