<svg 
    id="图层_1" 
    data-name="图层 1" 
    xmlns="http://www.w3.org/2000/svg" 
viewBox="0 0 1024 1024">
<title>icon</title>
<defs>
  <style>
    .cls-1 {
      fill: #8099d0;
    }
  </style>
</defs>
<path class="cls-1" d="M960.18,831.13H64.82V575.65h298.8L423,384.33a204.58,204.58,0,0,1-72.87-60.2,200.74,200.74,0,0,1-40.62-121.66C309.53,90.83,400.36,0,512,0S714.47,90.83,714.47,202.47a200.74,200.74,0,0,1-40.62,121.66A204.58,204.58,0,0,1,601,384.33l59.41,191.32h299.8Zm-831.36-64H896.18V639.65H613.24l-91.7-295.32,30.8-9.36a137.68,137.68,0,0,0,98.13-132.5C650.47,126.12,588.35,64,512,64S373.53,126.12,373.53,202.47A137.68,137.68,0,0,0,471.66,335l30.8,9.36-91.7,295.32H128.82Z"/><polygon  class="cls-1" points="832 896 832 960 192 960 192 896 128 896 128 1024 896 1024 896 896 832 896"/>
</svg>