<svg id="图层_1" data-name="图层 1" xmlns="http://www.w3.org/2000/svg" viewBox="0 0 1024 1024"><title>ERP-icon</title><path d="M992.91,48.09h0a107.48,107.48,0,0,0-152,0l-178,178a77.1,77.1,0,0,1-91.17,13.31l-74.67-40.35A173.4,173.4,0,0,0,292,229l-72.65,72.65a41.72,41.72,0,0,0,0,59l461,461a41.72,41.72,0,0,0,59,0l72.93-72.93a173.42,173.42,0,0,0,30.19-204.62L802,468.59a77.1,77.1,0,0,1,13.42-91L992.91,200.09A107.48,107.48,0,0,0,992.91,48.09ZM734.59,632.72a45.14,45.14,0,0,1-12.82,25.49l-11.92,11.92-339-339,11.64-11.64a45.19,45.19,0,0,1,32.17-13.31h0a44.84,44.84,0,0,1,21.54,5.46l191.9,103.69L729.68,604.61A45.14,45.14,0,0,1,734.59,632.72Z"/><path d="M143.18,377.82S88,472,0,474L520,994c88-2,143.18-96.18,143.18-96.18l-520-520Z"/></svg>