<?xml version="1.0" encoding="utf-8"?>
<!-- Generator: Adobe Illustrator 21.0.2, SVG Export Plug-In . SVG Version: 6.00 Build 0)  -->
<svg version="1.1" id="Layer_1" xmlns="http://www.w3.org/2000/svg" xmlns:xlink="http://www.w3.org/1999/xlink" x="0px" y="0px"
	 viewBox="0 0 1024 1024" style="enable-background:new 0 0 1024 1024;" xml:space="preserve">
  <defs>
    <style>
      .cls-1 {
        fill: #336FD3;
      }
    </style>
  </defs>
<path d="M426.6,277.2c0-6.2,2-11.3,6.1-15.4c4-4,9.1-6.1,15.4-6.1h42.7c6.2,0,11.3,2,15.4,6.1c4,4,6.1,9.1,6.1,15.4V512h149.4
	c6.2,0,11.3,2,15.4,6.1c4,4,6.1,9.1,6.1,15.4v42.7c0,6.2-2,11.3-6.1,15.4c-4.1,4.1-9.1,6.1-15.4,6.1H448.1c-6.2,0-11.3-2-15.4-6.1
	s-6.1-9.1-6.1-15.4V277.2L426.6,277.2z M198,694c32.4,55.5,76.4,99.5,132.1,132.1s116.2,48.7,182,48.7s126.5-16.2,182-48.7
	s99.5-76.4,132.1-132.1c32.4-55.5,48.7-116.2,48.7-182s-16.3-126.5-48.8-182S749.6,230.4,694,197.9c-55.5-32.6-116.2-48.7-182-48.7
	s-126.5,16.2-182,48.7S230.4,274.4,198,330s-48.7,116.2-48.7,182S165.6,638.5,198,694z M0,512c0-92.9,22.9-178.5,68.6-257.1
	S176.5,114.3,254.9,68.6S419.1,0,512,0s178.5,22.9,257.1,68.6s140.6,107.9,186.3,186.3c45.7,78.4,68.6,164.2,68.6,257.1
	s-22.9,178.5-68.6,257.1c-45.7,78.5-107.9,140.6-186.3,186.3c-78.4,45.7-164.2,68.6-257.1,68.6s-178.5-22.9-257.1-68.6
	c-78.5-45.7-140.6-107.9-186.3-186.3S0,604.9,0,512L0,512z" class="cls-1"/>
</svg>
