<?xml version="1.0" standalone="no"?><!DOCTYPE svg PUBLIC "-//W3C//DTD SVG 1.1//EN" "http://www.w3.org/Graphics/SVG/1.1/DTD/svg11.dtd"><svg t="1528427681463" class="icon" style="" viewBox="0 0 1024 1024" version="1.1" xmlns="http://www.w3.org/2000/svg" p-id="1935" xmlns:xlink="http://www.w3.org/1999/xlink" width="200" height="200"><defs><style type="text/css">
.cls-1 {
  fill: #fff;
}
</style></defs><path d="M636.924 395.471c-7.639-7.702-15.906-14.645-24.367-21.148-8.775-8.458-20.64-13.636-33.832-13.636-26.83 0-48.609 21.843-48.609 48.671 0 11.868 4.228 22.726 11.364 31.185 3.406 4.103 7.446 7.639 11.993 10.416 4.607 3.787 9.154 7.513 13.315 11.743l3.98 3.978c50.438 50.372 35.416 137.171-15.026 187.544l-215.128 215.14c-50.377 50.374-132.377 50.374-182.818 0l-4.040-4.103c-50.437-50.442-50.437-132.508 0-182.753l95.070-95.070c12.182-9.661 20.011-24.619 20.011-41.412 0-29.166-23.672-52.833-52.837-52.833-11.046 0-21.276 3.408-29.732 9.154 0 0 0-0.065-0.065-0.126l-1.009 0.947c-3.725 2.712-7.133 5.869-10.101 9.469l-98.731 92.349c-92.858 92.925-92.858 244.932 0 337.729l4.042 3.979c92.858 92.797 244.743 92.797 337.604 0l215.129-215.14c92.732-92.92 100.564-239.373 7.827-332.17l-4.040-3.913zM947.006 79.962l-3.916-3.978c-92.921-92.921-244.804-92.921-337.729 0l-215.005 215.138c-92.922 92.796-98.036 226.94-5.175 319.86l3.913 3.916c4.229 4.167 8.583 8.206 13.067 11.994 3.22 3.595 7.070 6.628 11.299 9.153 0 0.064 0.063 0.064 0.063 0.064 6.755 3.91 14.519 6.119 22.853 6.119 25.375 0 45.957-20.579 45.957-45.954 0-7.136-1.643-13.952-4.545-19.948-6.061-13.701-17.423-21.967-25.315-29.799l-3.913-3.91c-50.375-50.437-31.248-123.725 19.189-174.166l215.257-215.073c50.315-50.437 132.315-50.437 182.753 0l3.98 3.914c50.438 50.44 50.438 132.504 0 182.816l-94.818 94.881c-12.814 9.53-21.213 24.936-21.213 42.167 0 28.912 23.422 52.392 52.396 52.392 0.024 0 0.052 0 0.080 0 10.156 0 19.637-2.89 27.665-7.892-0.222 0.252-0.157 0.317-0.093 0.444l1.45-1.327c4.547-3.027 8.521-6.757 11.93-11.042l99.869-92.102c92.919-92.924 92.919-244.807 0-337.667z" class="cls-1"></path></svg>
