<?xml version="1.0" encoding="utf-8"?>
<!-- Generator: Adobe Illustrator 22.1.0, SVG Export Plug-In . SVG Version: 6.00 Build 0)  -->
<svg version="1.1" id="图层_1" xmlns="http://www.w3.org/2000/svg" xmlns:xlink="http://www.w3.org/1999/xlink" x="0px" y="0px"
	 viewBox="0 0 16 16" style="enable-background:new 0 0 16 16;" xml:space="preserve">
<style type="text/css">
	.st0{fill: #8099d0;}
</style>
<g>
	<path class="st0" d="M14.855,9.999H1.145c-0.631,0-1.142,0.537-1.142,1.199v2.599c0,0.662,0.511,1.199,1.142,1.199h13.711
		c0.631,0,1.142-0.537,1.142-1.199v-2.599C15.998,10.536,15.486,9.999,14.855,9.999z M9.504,13.003h-3
		c-0.275,0-0.497-0.223-0.497-0.497c0-0.275,0.223-0.497,0.497-0.497h3c0.275,0,0.497,0.223,0.497,0.497
		C10.002,12.781,9.779,13.003,9.504,13.003z"/>
</g>
<g>
	<path class="st0" d="M15.805,8.54l-3.326-7.826c-0.007-0.018-0.016-0.033-0.024-0.05l-0.011-0.022h-0.004
		C12.253,0.265,11.872,0,11.422,0H4.568C4.132,0,3.766,0.251,3.573,0.608l-0.013,0L3.529,0.673C3.524,0.685,3.517,0.696,3.512,0.709
		L0.252,8.542C0.151,8.753,0.306,8.996,0.54,8.996h14.977C15.753,8.996,15.908,8.751,15.805,8.54z M5.502,1.998h4.997
		C10.776,1.998,11,2.222,11,2.499C11,2.776,10.776,3,10.499,3H5.502C5.225,3,5.001,2.776,5.001,2.499
		C5.001,2.222,5.225,1.998,5.502,1.998z M11.492,6H4.51C4.234,6,4.01,5.776,4.01,5.499c0-0.277,0.224-0.501,0.501-0.501h6.982
		c0.277,0,0.501,0.224,0.501,0.501C11.993,5.776,11.769,6,11.492,6z"/>
</g>
</svg>
