<svg id="图层_1" data-name="图层 1" xmlns="http://www.w3.org/2000/svg" viewBox="0 0 1024 1024">
  <title>运维服务入口</title>
  <defs>
    <style>
      .cls-1 {
        fill: #8099d0;
      }
    </style>
  </defs>
  <path d="M930.66,390.19a183.14,183.14,0,0,1-39.22,16.36c.17,4.64.26,9.3.26,14A379.27,379.27,0,0,1,744.62,720.78a244,244,0,0,0-29.34-58.57q10.26-8.67,19.87-18.24a314.8,314.8,0,0,0,87.56-167.12,318.42,318.42,0,0,0,5-56.31q0-3.76-.09-7.51a182.67,182.67,0,1,1,103.05-22.84Z"  class="cls-1" /><path d="M200.56,475.93A314.93,314.93,0,0,0,288.3,644q9.26,9.26,19.18,17.65a314.54,314.54,0,0,0,52.77,36.3A182,182,0,1,1,334,756.42,380.56,380.56,0,0,1,135.21,472a245.26,245.26,0,0,0,47.3,4.62Q191.56,476.61,200.56,475.93Z"  class="cls-1" /><path d="M511.72,104.56A314.36,314.36,0,0,0,405,123q-8.21,2.95-16.29,6.35a315.47,315.47,0,0,0-41.5,21.29,182,182,0,1,1-37.52-52,380.68,380.68,0,0,1,345.63-30,244,244,0,0,0-36.08,54.68A314.33,314.33,0,0,0,511.72,104.56Z" class="cls-1" /></svg>
