<svg xmlns="http://www.w3.org/2000/svg" width="16" height="16" viewBox="0 0 16 16">
  <defs>
    <style>
      .typeColor {
        fill: #336FD3;
      }
    </style>
  </defs>
<path d="M14.133.031H1.866a.422.422 0 0 0-.429.415v15.107c0 .147.08.284.211.36a.444.444 0 0 0 .427.005L8 12.722l5.925 3.194a.44.44 0 0 0 .425-.005.417.417 0 0 0 .212-.36V.446a.421.421 0 0 0-.429-.415zm-.429 14.815l-5.495-2.963a.438.438 0 0 0-.418 0l-5.495 2.963V.863h11.408v13.983zM4.792 4.639h6.417a.423.423 0 0 0 .429-.415.423.423 0 0 0-.429-.417H4.792a.422.422 0 0 0-.428.417c0 .228.191.415.428.415zm0 2.616h6.417a.423.423 0 0 0 .429-.415.422.422 0 0 0-.429-.416H4.792a.422.422 0 0 0-.428.416c0 .228.191.415.428.415z" class="typeColor"/></svg>
