<svg id="图层_1" data-name="图层 1" xmlns="http://www.w3.org/2000/svg" viewBox="0 0 1024 1024"><defs><style>.cls-1{fill-rule:evenodd; fill: #8099d0}</style></defs><title>ERP-icon</title><path class="cls-1" d="M832,384c-60.83,0-114.41-28.84-149.58-73L492.88,415.55a254.16,254.16,0,0,1-26,241.26L683.05,800.9C705.69,780.67,735.25,768,768,768A128,128,0,1,1,640,896c0-14.73,3-28.65,7.58-41.82L423.09,704.51C378.16,743.55,320.2,768,256,768,114.62,768,0,653.38,0,512S114.62,256,256,256c84.27,0,158.39,41.25,205,104.08l190.43-105C644.52,235.21,640,214.21,640,192,640,86,726,0,832,0s192,86,192,192S938,384,832,384Zm-576,0A128,128,0,1,0,384,512,128,128,0,0,0,256,384Z"/></svg>