<svg id="图层_1" data-name="图层 1" xmlns="http://www.w3.org/2000/svg" viewBox="0 0 1024 1024"><title>ERP-icon</title>
<style type="text/css">
	.gikkad{fill: #5fbe19;}
</style>
<path d="M512,0C229.24,0,0,229.23,0,512s229.24,512,512,512,512-229.23,512-512S794.78,0,512,0ZM379.55,504a94.41,94.41,0,0,1-11.07,44.51L542.73,669.85A93.88,93.88,0,0,1,609.57,642c52.15,0,94.43,42.53,94.42,95s-42.29,95-94.44,95-94.42-42.54-94.42-95a95.71,95.71,0,0,1,2-19.58L326,589.24a93.22,93.22,0,0,1-40.26,9.1C234,598.34,192,556.1,192,504s42-94.32,93.77-94.32a93,93,0,0,1,50.18,14.6L517,302.84a102.85,102.85,0,0,1-1.3-16.18c0-52.28,42.17-94.66,94.14-94.66S704,231.44,704,284.78s-43,96.56-96,96.56c-27.36,0-51.06-11.3-67.56-29.41L372.76,468.7A94.57,94.57,0,0,1,379.55,504Z" class="gikkad"/></svg>