<?xml version="1.0" encoding="utf-8"?>
<!-- Generator: Adobe Illustrator 22.1.0, SVG Export Plug-In . SVG Version: 6.00 Build 0)  -->
<svg version="1.1" id="图层_1" xmlns="http://www.w3.org/2000/svg" xmlns:xlink="http://www.w3.org/1999/xlink" x="0px" y="0px"
	 viewBox="0 0 48 48" style="enable-background:new 0 0 48 48;" xml:space="preserve">
<style type="text/css">
	.st0{fill: #a8afbf;}
</style>
<path class="st0" d="M42.982,29.286l0.001-9.32C42.985,19.906,43,19.85,43,19.79h-0.017l0.001-9.916c0-5.51-8.342-9.827-18.991-9.827
	c-10.647,0-18.988,4.315-18.991,9.825L5,38.126c0,5.511,8.342,9.827,18.991,9.827c4.914,0,9.554-0.931,13.066-2.621
	c3.821-1.839,5.924-4.398,5.923-7.206l0.001-8.655C42.984,29.409,43,29.348,43,29.286H42.982z M7.651,14.313
	c3.237,2.724,9.245,4.523,16.285,4.523c7.118,0,13.185-1.838,16.395-4.613l0,5.706c-0.196,3.063-6.834,6.414-16.317,6.414
	c-9.626,0-16.335-3.454-16.335-6.553H7.651V14.313z M23.937,3.08c9.544,0,16.196,3.453,16.196,6.553s-6.651,6.553-16.196,6.553
	S7.741,12.733,7.741,9.633S14.392,3.08,23.937,3.08z M7.651,24.574c3.241,2.685,9.212,4.419,16.363,4.419
	c7.118,0,13.066-1.717,16.317-4.381l0,4.809c-0.192,3.063-6.831,6.417-16.318,6.417c-9.626,0-16.335-3.454-16.335-6.553H7.651
	V24.574z M23.991,45.303c-4.524,0-8.756-0.838-11.917-2.359c-2.811-1.353-4.423-3.109-4.423-4.818v-4.056
	c3.241,2.685,9.212,4.419,16.363,4.419c7.118,0,13.066-1.718,16.318-4.381l0,4.019C40.333,42.356,31.721,45.303,23.991,45.303z"/>
</svg>
