<svg id="图层_1" data-name="图层 1" xmlns="http://www.w3.org/2000/svg" viewBox="0 0 24 24">
<title>图标</title>
<defs>
  <style>
    .brame {
      fill: #336FD3;
    }
  </style>
</defs>
<polygon class="brame" points="23.38 9.43 12 1.85 0.63 9.43 0.07 8.6 12 0.65 23.93 8.6 23.38 9.43"/><polygon class="brame" points="22.25 24 1.75 24 1.75 10 2.75 10 2.75 23 21.25 23 21.25 10 22.25 10 22.25 24"/><path class="brame" d="M12,14a3,3,0,1,1,3-3A3,3,0,0,1,12,14Zm0-5a2,2,0,1,0,2,2A2,2,0,0,0,12,9Z"/><path class="brame" d="M18,21H17A5,5,0,0,0,7,21H6a6,6,0,0,1,12,0Z"/></svg>
