<svg id="图层_1" data-name="图层 1" xmlns="http://www.w3.org/2000/svg" viewBox="0 0 1024 1024"><title>icon</title>
<defs>
  <style>
    .cls-1 {
      fill: #8099d0;
    }
  </style>
</defs>
<path class="cls-1" d="M512,64c120.71,0,218.57,77.21,218.57,211.37,0,104.78-60,193.25-143.65,227.35,132.3,20.74,246.5,94.75,318,199.64C979.87,812.22,896.38,960,761.7,960H262.3C127.61,960,44.12,812.22,119,702.36c71.52-104.9,185.73-178.9,318-199.64-83.64-34.1-143.65-122.57-143.65-227.35C293.42,141.21,391.28,64,512,64m0-64c-37.49,0-73.35,6-106.6,17.88-34.51,12.32-65.16,30.55-91.09,54.2a252.36,252.36,0,0,0-62.65,88.69c-14.76,34.84-22.25,73.4-22.25,114.6,0,63,17.52,123.46,50.67,174.86a305.07,305.07,0,0,0,18.7,25.92,537.08,537.08,0,0,0-162.9,107.61,528.52,528.52,0,0,0-69.72,82.55A223.54,223.54,0,0,0,27,784.75a228,228,0,0,0,26.57,114A234.72,234.72,0,0,0,262.3,1024H761.7A234.71,234.71,0,0,0,970.46,898.71a228,228,0,0,0,26.57-114,223.55,223.55,0,0,0-39.19-118.45,528.64,528.64,0,0,0-69.72-82.55,537.08,537.08,0,0,0-162.9-107.61,304.92,304.92,0,0,0,18.7-25.92c33.15-51.41,50.67-111.87,50.67-174.86,0-41.2-7.49-79.75-22.25-114.6a252.36,252.36,0,0,0-62.65-88.69c-25.93-23.64-56.57-41.88-91.08-54.2C585.35,6,549.49,0,512,0Z"/></svg>